<svg width="200" height="100" viewBox="0 0 80 50" class="looka-1j8o68f" xmlns="http://www.w3.org/2000/svg" version="1.1" xmlns:xlink="http://www.w3.org/1999/xlink">
  <defs id="SvgjsDefs12391"/>
  <g id="SvgjsG12392" featurekey="xG21Y3-0" transform="matrix(1.1266185573988547,0,0,1.1266185573988547,-16.325886657602084,-30.938123738555333)" fill="#ffffff">
    <title xmlns="http://www.w3.org/2000/svg">Sheets</title>
    <path xmlns="http://www.w3.org/2000/svg" d="M75,39H21.5a2,2,0,0,0-2,2v3.75A8.5,8.5,0,0,0,23,61H75A10.5,10.5,0,0,0,85.5,50.5v-1A10.51,10.51,0,0,0,75,39Zm0,18H23a4.5,4.5,0,0,1,0-9H74.5a2,2,0,0,1,0,4H23a.5.5,0,0,0,0,1H74.5a3,3,0,0,0,0-6h-51V43H75a6.51,6.51,0,0,1,6.5,6.5v1A6.51,6.51,0,0,1,75,57Z"/>
  </g>
</svg>