<svg width="429" height="100.3820601515734" viewBox="0 0 314 80.49284077422203" class="looka-1j8o68f" xmlns="http://www.w3.org/2000/svg" version="1.1" xmlns:xlink="http://www.w3.org/1999/xlink">
  <defs id="SvgjsDefs12391"/>
  <g id="SvgjsG12392" featurekey="xG21Y3-0" transform="matrix(1.1266185573988547,0,0,1.1266185573988547,-16.325886657602084,-30.938123738555333)" fill="#ffffff">
    <title xmlns="http://www.w3.org/2000/svg">Sheets</title>
    <path xmlns="http://www.w3.org/2000/svg" d="M75,39H21.5a2,2,0,0,0-2,2v3.75A8.5,8.5,0,0,0,23,61H75A10.5,10.5,0,0,0,85.5,50.5v-1A10.51,10.51,0,0,0,75,39Zm0,18H23a4.5,4.5,0,0,1,0-9H74.5a2,2,0,0,1,0,4H23a.5.5,0,0,0,0,1H74.5a3,3,0,0,0,0-6h-51V43H75a6.51,6.51,0,0,1,6.5,6.5v1A6.51,6.51,0,0,1,75,57Z"/>
  </g>
  <g id="SvgjsG12393" featurekey="n48U4P-0" transform="matrix(2.6724967134623414,0,0,2.9724967134623414,110.05116345217202,-18.874541681555275)" fill="#ffffff">
    <path d="M15.85858 8.66216 l2.90564 0 l-9.01698 12.02334 l-9.01802 -12.02334 l2.90578 0 l6.1121 8.14918 z M37.08674 10.95126 l-13.5898 0.00002 l0 2.18628 l9.0642 0.03375 l-0.008633 2.3477 l-9.05556 -0.03375 l0 2.17818 l13.5898 0 l0 2.3477 l-15.9375 0 l0 -11.40744 l15.9375 0 l0 2.34756 z M42.77694 17.61898 l13.5898 0 l0 2.3477 l-15.9375 0 l0 -11.40744 l2.3477 0 l0 9.05974 z M74.66458 9.64948 c0.917754 0.909902 0.910196 2.22604 0.898554 4.21824 c-0.000918 0.14832 -0.001699 0.301992 -0.002344 0.461172 c-0.004453 1.182344 -0.007598 2.03654 -0.131719 2.75694 c-0.105684 0.6142 -0.349746 1.499532 -1.243574 2.09542 c-1.132128 0.754668 -2.82312 0.77168 -6.52816 0.808692 c-0.578614 0.005762 -1.112246 0.010078 -1.60455 0.010078 c-2.93534 0 -4.41104 -0.155371 -5.35376 -1.092226 c-0.981972 -0.975704 -0.976484 -2.41258 -0.968378 -4.58764 c0.009023 -2.42682 0.014512 -3.89168 1.244726 -4.80108 c1.061368 -0.784492 2.60274 -0.805156 5.97974 -0.850546 l0.673964 -0.009277 c4.20884 -0.060156 5.95086 -0.085137 7.0355 0.990234 z M73.2314 13.85424 c0.006543 -1.144804 0.013457 -2.32876 -0.208632 -2.54874 c-0.275566 -0.273222 -1.512324 -0.336386 -3.15846 -0.336386 c-0.677364 0 -1.42418 0.010723 -2.20186 0.021836 l-0.676054 0.009277 c-2.41938 0.032441 -4.1674 0.055977 -4.6249 0.394062 c-0.28879 0.213458 -0.293496 1.474414 -0.298984 2.93458 c-0.005098 1.355898 -0.009941 2.6366 0.280156 2.92486 c0.45541 0.45254 2.91388 0.427812 5.2914 0.404278 c2.73026 -0.027207 4.70284 -0.046953 5.25804 -0.41709 c0.326856 -0.21789 0.331036 -1.351582 0.336914 -2.9208 c0.000527 -0.160742 0.001445 -0.315996 0.002363 -0.465878 z"/>
  </g>
  <g id="SvgjsG12394" featurekey="sloganFeature-0" transform="matrix(0.8,0,0,0.8,0,50)" fill="#ffffff">
    <path d="M4.01694 17.61898 l13.5898 0 l0 2.3477 l-15.9375 0 l0 -11.40744 l2.3477 0 l0 9.05974 z M35.90458 9.64948 c0.917754 0.909902 0.910196 2.22604 0.898554 4.21824 c-0.000918 0.14832 -0.001699 0.301992 -0.002344 0.461172 c-0.004453 1.182344 -0.007598 2.03654 -0.131719 2.75694 c-0.105684 0.6142 -0.349746 1.499532 -1.243574 2.09542 c-1.132128 0.754668 -2.82312 0.77168 -6.52816 0.808692 c-0.578614 0.005762 -1.112246 0.010078 -1.60455 0.010078 c-2.93534 0 -4.41104 -0.155371 -5.35376 -1.092226 c-0.981972 -0.975704 -0.976484 -2.41258 -0.968378 -4.58764 c0.009023 -2.42682 0.014512 -3.89168 1.244726 -4.80108 c1.061368 -0.784492 2.60274 -0.805156 5.97974 -0.850546 l0.673964 -0.009277 c4.20884 -0.060156 5.95086 -0.085137 7.0355 0.990234 z M34.4714 13.85424 c0.006543 -1.144804 0.013457 -2.32876 -0.208632 -2.54874 c-0.275566 -0.273222 -1.512324 -0.336386 -3.15846 -0.336386 c-0.677364 0 -1.42418 0.010723 -2.20186 0.021836 l-0.676054 0.009277 c-2.41938 0.032441 -4.1674 0.055977 -4.6249 0.394062 c-0.28879 0.213458 -0.293496 1.474414 -0.298984 2.93458 c-0.005098 1.355898 -0.009941 2.6366 0.280156 2.92486 c0.45541 0.45254 2.91388 0.427812 5.2914 0.404278 c2.73026 -0.027207 4.70284 -0.046953 5.25804 -0.41709 c0.326856 -0.21789 0.331036 -1.351582 0.336914 -2.9208 c0.000527 -0.160742 0.001445 -0.315996 0.002363 -0.465878 z M55.90952 17.6501 l0.040137 2.32418 l-1.16207 0.02002 c-0.015039 0.000254 -1.02748 0.017129 -3.00766 0.017129 c-1.003164 0 -2.25458 -0.004453 -3.75054 -0.017402 c-2.41322 -0.021055 -4.34278 -0.542128 -5.73478 -1.548964 c-1.383496 -1.000684 -2.14536 -2.45624 -2.14536 -4.0986 c0 -1.64129 0.768536 -3.10014 2.16394 -4.10748 c1.382988 -0.998458 3.36158 -1.531036 5.72184 -1.540196 c4.441 -0.017129 6.7191 0.000273 6.7416 0.00041 l1.162208 0.00916 l-0.01832 2.32456 l-1.162208 -0.00916 c-0.022363 -0.000254 -2.28922 -0.01752 -6.7144 -0.000391 c-3.43574 0.01334 -5.57012 1.286582 -5.57012 3.32312 c0 0.901934 0.398124 1.647304 1.183124 2.21506 c0.979356 0.70836 2.49836 1.091582 4.3926 1.108066 c4.41446 0.038574 6.6757 0.000898 6.69792 0.000508 z M67.47542 8.01058 l9.17652 12.1901 l-2.95076 0 l-2.56598 -3.39742 l-7.3197 0 l-2.52858 3.39742 l-2.91768 0 z M65.5763 14.45556 l3.7983 0 l-1.899218 -2.53224 z M81.41694 17.61898 l13.5898 0 l0 2.3477 l-15.9375 0 l0 -11.40744 l2.3477 0 l0 9.05974 z M109.57376 20.024609 l-2.32456 0 l0 -11.29536 l2.32456 0 l0 11.29536 z M120.89792 14.06276 l7.9687 -5.3126 l0 11.24984 l-2.3477 0 l0 -6.8631 l-5.621 3.74728 l-5.621 -3.74728 l0 6.8631 l-2.3477 0 l0 -11.24984 z M140.37542 8.01058 l9.17652 12.1901 l-2.95076 0 l-2.56598 -3.39742 l-7.3197 0 l-2.52858 3.39742 l-2.91768 0 z M138.4763 14.45556 l3.7983 0 l-1.899218 -2.53224 z M165.74954 14.39434 c-0.019883 1.365722 -0.000156 4.43018 0.000234 4.46078 l0.007715 1.169922 l-7.89792 0 c-2.37332 0 -4.35874 -0.531132 -5.74158 -1.535742 c-1.385606 -1.0067 -2.14864 -2.46698 -2.14864 -4.11194 c0 -1.36414 0.514668 -2.59632 1.488536 -3.563 c1.394356 -1.38416 3.61046 -2.10574 6.41018 -2.08456 c1.707598 0.012559 6.66652 0.000137 6.71648 0 l1.162208 -0.003008 l0.005879 2.32456 l-1.162208 0.003008 c-0.050098 0.000137 -5.02054 0.012695 -6.73954 0 c-2.13764 -0.016875 -3.82404 0.485098 -4.75552 1.409786 c-0.53205 0.528124 -0.801738 1.171738 -0.801738 1.91332 c0 2.04962 2.13268 3.323 5.5658 3.323 l5.55992 0 c-0.00248 -0.636954 -0.004316 -1.439492 -0.00248 -2.1608 l-4.47708 0 l0 -2.32456 l6.8269 0 z M185.06674 10.95126 l-13.5898 0.00002 l0 2.18628 l9.0642 0.03375 l-0.008633 2.3477 l-9.05556 -0.03375 l0 2.17818 l13.5898 0 l0 2.3477 l-15.9375 0 l0 -11.40744 l15.9375 0 l0 2.34756 z M213.04952 17.6501 l0.040137 2.32418 l-1.16207 0.02002 c-0.015039 0.000254 -1.02748 0.017129 -3.00766 0.017129 c-1.003164 0 -2.25458 -0.004453 -3.75054 -0.017402 c-2.41322 -0.021055 -4.34278 -0.542128 -5.73478 -1.548964 c-1.383496 -1.000684 -2.14536 -2.45624 -2.14536 -4.0986 c0 -1.64129 0.768536 -3.10014 2.16394 -4.10748 c1.382988 -0.998458 3.36158 -1.531036 5.72184 -1.540196 c4.441 -0.017129 6.7191 0.000273 6.7416 0.00041 l1.162208 0.00916 l-0.01832 2.32456 l-1.162208 -0.00916 c-0.022363 -0.000254 -2.28922 -0.01752 -6.7144 -0.000391 c-3.43574 0.01334 -5.57012 1.286582 -5.57012 3.32312 c0 0.901934 0.398124 1.647304 1.183124 2.21506 c0.979356 0.70836 2.49836 1.091582 4.3926 1.108066 c4.41446 0.038574 6.6757 0.000898 6.69792 0.000508 z M231.38458 9.64948 c0.917754 0.909902 0.910196 2.22604 0.898554 4.21824 c-0.000918 0.14832 -0.001699 0.301992 -0.002344 0.461172 c-0.004453 1.182344 -0.007598 2.03654 -0.131719 2.75694 c-0.105684 0.6142 -0.349746 1.499532 -1.243574 2.09542 c-1.132128 0.754668 -2.82312 0.77168 -6.52816 0.808692 c-0.578614 0.005762 -1.112246 0.010078 -1.60455 0.010078 c-2.93534 0 -4.41104 -0.155371 -5.35376 -1.092226 c-0.981972 -0.975704 -0.976484 -2.41258 -0.968378 -4.58764 c0.009023 -2.42682 0.014512 -3.89168 1.244726 -4.80108 c1.061368 -0.784492 2.60274 -0.805156 5.97974 -0.850546 l0.673964 -0.009277 c4.20884 -0.060156 5.95086 -0.085137 7.0355 0.990234 z M229.9514 13.85424 c0.006543 -1.144804 0.013457 -2.32876 -0.208632 -2.54874 c-0.275566 -0.273222 -1.512324 -0.336386 -3.15846 -0.336386 c-0.677364 0 -1.42418 0.010723 -2.20186 0.021836 l-0.676054 0.009277 c-2.41938 0.032441 -4.1674 0.055977 -4.6249 0.394062 c-0.28879 0.213458 -0.293496 1.474414 -0.298984 2.93458 c-0.005098 1.355898 -0.009941 2.6366 0.280156 2.92486 c0.45541 0.45254 2.91388 0.427812 5.2914 0.404278 c2.73026 -0.027207 4.70284 -0.046953 5.25804 -0.41709 c0.326856 -0.21789 0.331036 -1.351582 0.336914 -2.9208 c0.000527 -0.160742 0.001445 -0.315996 0.002363 -0.465878 z M243.59792 14.06276 l7.9687 -5.3126 l0 11.24984 l-2.3477 0 l0 -6.8631 l-5.621 3.74728 l-5.621 -3.74728 l0 6.8631 l-2.3477 0 l0 -11.24984 z M267.1842 8.47528 c1.487344 0 3.70008 0.915938 3.70008 3.43888 s-2.05642 3.43876 -3.43876 3.43876 l-10.172 0 l-0.016738 4.53426 l-2.34756 -0.00877 l0.037793 -10.22744 l0 -1.175684 l0.004316 0 l0 -0.004316 l1.173848 0.004316 l11.059 0 z M268.09556 12.82368 c0.218164 -0.120723 0.441308 -0.323046 0.441172 -0.909512 c0 -0.47164 -0.15957 -0.726954 -0.569472 -0.910722 c-0.3725 -0.167012 -0.779258 -0.180488 -0.783046 -0.180488 l-9.88948 0 l0 2.18224 l10.1406 0 c0.102402 -0.003535 0.408184 -0.042109 0.660214 -0.181523 z M288.55748 17.557 l1.161972 -0.017422 l0.034785 2.32428 l-1.16207 0.017402 c-0.180879 0.002754 -0.38543 0.005898 -0.608692 0.005898 c-1.613964 0 -4.20258 -0.160078 -5.83786 -1.771152 c-0.727988 -0.717266 -1.186542 -1.629004 -1.369786 -2.71992 l-4.20544 0 l-0.016602 4.48964 l-2.32456 -0.008633 l0.037402 -10.12738 l0 -1.163516 l0.004316 0 l0 -0.004316 l1.161152 0.004316 l10.95124 0 c1.472832 0 3.66384 0.906778 3.66384 3.40488 c0 2.49824 -2.03616 3.40502 -3.40488 3.40502 l-3.48256 0 c0.12543 0.425196 0.328418 0.779238 0.617344 1.063964 c1.168476 1.150958 3.60798 1.11459 4.7804 1.096934 z M276.59132 13.0715 l10.04064 -0.00002 c0.101484 -0.003535 0.404258 -0.041719 0.653808 -0.179707 c0.216074 -0.119551 0.436856 -0.320058 0.436856 -0.900762 c0 -0.466914 -0.157988 -0.719726 -0.563828 -0.90166 c-0.368828 -0.165312 -0.771524 -0.178652 -0.775312 -0.178652 l-9.79216 0 l0 2.1608 z M309.34674 10.95126 l-13.5898 0.00002 l0 2.18628 l9.0642 0.03375 l-0.008633 2.3477 l-9.05556 -0.03375 l0 2.17818 l13.5898 0 l0 2.3477 l-15.9375 0 l0 -11.40744 l15.9375 0 l0 2.34756 z M315.47794 11.0045 c-0.218164 0.120586 -0.441172 0.323066 -0.441172 0.909668 c0 0.457246 0.147793 0.707188 0.527344 0.891074 c0.383868 0.185977 0.811954 0.19957 0.833536 0.200098 l8.53332 0.033359 c1.482774 0 3.69562 0.9158 3.69562 3.43876 s-2.05642 3.43876 -3.43876 3.43876 l-12.49864 0 l0 -2.3477 l12.4883 0 c0.102402 -0.003535 0.408184 -0.042109 0.660214 -0.181523 c0.218282 -0.120723 0.44129 -0.323184 0.44129 -0.909648 c0 -0.457246 -0.147793 -0.707188 -0.527344 -0.891074 c-0.382696 -0.185469 -0.810372 -0.199473 -0.834296 -0.200118 l-8.52782 -0.03793 l0 0.00457 c-1.48748 0 -3.70034 -0.9158 -3.70034 -3.43876 s2.05642 -3.43876 3.43876 -3.43876 l12.49864 0 l0 2.3477 l-12.48816 0 c-0.102285 0.003535 -0.40834 0.042109 -0.660508 0.181523 z M334.75794 11.0045 c-0.218164 0.120586 -0.441172 0.323066 -0.441172 0.909668 c0 0.457246 0.147793 0.707188 0.527344 0.891074 c0.383868 0.185977 0.811954 0.19957 0.833536 0.200098 l8.53332 0.033359 c1.482774 0 3.69562 0.9158 3.69562 3.43876 s-2.05642 3.43876 -3.43876 3.43876 l-12.49864 0 l0 -2.3477 l12.4883 0 c0.102402 -0.003535 0.408184 -0.042109 0.660214 -0.181523 c0.218282 -0.120723 0.44129 -0.323184 0.44129 -0.909648 c0 -0.457246 -0.147793 -0.707188 -0.527344 -0.891074 c-0.382696 -0.185469 -0.810372 -0.199473 -0.834296 -0.200118 l-8.52782 -0.03793 l0 0.00457 c-1.48748 0 -3.70034 -0.9158 -3.70034 -3.43876 s2.05642 -3.43876 3.43876 -3.43876 l12.49864 0 l0 2.3477 l-12.48816 0 c-0.102285 0.003535 -0.40834 0.042109 -0.660508 0.181523 z M353.57376 20.024609 l-2.32456 0 l0 -11.29536 l2.32456 0 l0 11.29536 z M371.86458 9.64948 c0.917754 0.909902 0.910196 2.22604 0.898554 4.21824 c-0.000918 0.14832 -0.001699 0.301992 -0.002344 0.461172 c-0.004453 1.182344 -0.007598 2.03654 -0.131719 2.75694 c-0.105684 0.6142 -0.349746 1.499532 -1.243574 2.09542 c-1.132128 0.754668 -2.82312 0.77168 -6.52816 0.808692 c-0.578614 0.005762 -1.112246 0.010078 -1.60455 0.010078 c-2.93534 0 -4.41104 -0.155371 -5.35376 -1.092226 c-0.981972 -0.975704 -0.976484 -2.41258 -0.968378 -4.58764 c0.009023 -2.42682 0.014512 -3.89168 1.244726 -4.80108 c1.061368 -0.784492 2.60274 -0.805156 5.97974 -0.850546 l0.673964 -0.009277 c4.20884 -0.060156 5.95086 -0.085137 7.0355 0.990234 z M370.4314 13.85424 c0.006543 -1.144804 0.013457 -2.32876 -0.208632 -2.54874 c-0.275566 -0.273222 -1.512324 -0.336386 -3.15846 -0.336386 c-0.677364 0 -1.42418 0.010723 -2.20186 0.021836 l-0.676054 0.009277 c-2.41938 0.032441 -4.1674 0.055977 -4.6249 0.394062 c-0.28879 0.213458 -0.293496 1.474414 -0.298984 2.93458 c-0.005098 1.355898 -0.009941 2.6366 0.280156 2.92486 c0.45541 0.45254 2.91388 0.427812 5.2914 0.404278 c2.73026 -0.027207 4.70284 -0.046953 5.25804 -0.41709 c0.326856 -0.21789 0.331036 -1.351582 0.336914 -2.9208 c0.000527 -0.160742 0.001445 -0.315996 0.002363 -0.465878 z M389.69904 8.59256 l2.34758 0 l0 11.24984 l-13.58968 -7.098 l0 7.25562 l-2.3477 0 l0 -11.24984 l13.5898 7.098 l0 -7.25562 z"/>
  </g>
</svg>